<?xml version="1.0" encoding="UTF-8"?>
<svg id="_图层_1" data-name="图层_1" xmlns="http://www.w3.org/2000/svg" version="1.1" viewBox="0 0 512 512">
  <!-- Generator: Adobe Illustrator 30.0.0, SVG Export Plug-In . SVG Version: 2.1.1 Build 123)  -->
  <defs>
    <style>
      .st0 {
        fill-opacity: 0;
      }

      .st0, .st1 {
        fill: #f6f6f6;
      }

      .st2 {
        fill: #fff;
      }

      .st3 {
        fill: #bfbfbf;
      }

      .st4 {
        fill: #656565;
      }

      .st5 {
        fill: #2c5aa0;
      }
    </style>
  </defs>
  <path id="canvas" class="st0" d="M511.5,512H-.5V0H511.5v512Z"/>
  <g id="iconBg">
    <path class="st1" d="M415.5,128.1v335.9H111.5V48h224.8l79.2,80.1Z"/>
    <path class="st4" d="M343.1,32H95.5v448h336V121.6l-88.4-89.6ZM335.5,48h.8l79,80h-79.9V48h.1ZM415.5,464H111.5V48h208v96h96v320Z"/>
  </g>
  <path id="iconFg" class="st3" d="M271.5,112h-128v-16h128v16ZM271.5,144h-128v16h128v-16ZM383.5,192h-240v16h240v-16ZM383.5,240h-240v16h240v-16ZM383.5,288h-240v16h240v-16ZM383.5,336h-240v16h240v-16ZM383.5,384h-240v16h240v-16Z"/>
  <path class="st2" d="M361.5,230.8c34.7,0,67.4,13.5,91.9,38.1,24.6,24.6,38.1,57.2,38.1,91.9s-13.5,67.4-38.1,91.9c-24.6,24.6-57.2,38.1-91.9,38.1s-67.4-13.5-91.9-38.1c-24.6-24.6-38.1-57.2-38.1-91.9s13.5-67.4,38.1-91.9c24.5-24.6,57.2-38.1,91.9-38.1M361.5,210.8c-82.8,0-150,67.2-150,150s67.2,150,150,150,150-67.2,150-150-67.1-150-150-150h0Z"/>
  <circle class="st5" cx="361.5" cy="360.8" r="130"/>
  <path class="st2" d="M361.5,330.08c-16.96,0-30.72,13.76-30.72,30.72s13.76,30.72,30.72,30.72,30.72-13.76,30.72-30.72-13.76-30.72-30.72-30.72ZM361.5,379.84c-10.51,0-19.04-8.53-19.04-19.04s8.53-19.04,19.04-19.04,19.04,8.53,19.04,19.04-8.53,19.04-19.04,19.04Z"/>
  <g>
    <path class="st2" d="M323.39,392.8c-5.4-6.42-9.2-14.22-10.81-22.8-.23-1.21-1.27-2.09-2.5-2.09h-24.52c-2.16,0-3.82,1.91-3.52,4.05,2.25,16.19,9.34,30.84,19.76,42.44l21.59-21.59Z"/>
    <path class="st2" d="M368.61,284.87v24.52c0,1.23.88,2.27,2.09,2.5,8.58,1.6,16.38,5.41,22.8,10.81l21.59-21.59c-11.6-10.42-26.24-17.5-42.44-19.76-2.14-.3-4.05,1.36-4.05,3.52Z"/>
    <path class="st2" d="M329.5,322.69c6.42-5.4,14.22-9.2,22.8-10.81,1.21-.23,2.09-1.27,2.09-2.5v-24.52c0-2.16-1.91-3.82-4.05-3.52-16.19,2.25-30.84,9.34-42.44,19.76l21.59,21.59Z"/>
    <path class="st2" d="M312.59,351.6c1.6-8.58,5.41-16.38,10.81-22.8l-21.59-21.59c-10.42,11.6-17.5,26.24-19.76,42.44-.3,2.14,1.36,4.05,3.52,4.05h24.52c1.23,0,2.27-.88,2.5-2.09Z"/>
    <path class="st2" d="M399.61,328.8c5.4,6.42,9.2,14.22,10.81,22.8.23,1.21,1.27,2.09,2.5,2.09h24.52c2.16,0,3.82-1.91,3.52-4.05-2.25-16.19-9.34-30.84-19.76-42.44l-21.59,21.59Z"/>
    <path class="st2" d="M352.3,409.71c-8.58-1.6-16.38-5.41-22.8-10.81l-21.59,21.59c11.6,10.42,26.24,17.5,42.44,19.76,2.14.3,4.05-1.36,4.05-3.52v-24.52c0-1.23-.88-2.27-2.09-2.5Z"/>
    <path class="st2" d="M410.41,370c-1.6,8.58-5.41,16.38-10.81,22.8l21.59,21.59c10.42-11.6,17.5-26.24,19.76-42.44.3-2.14-1.36-4.05-3.52-4.05h-24.52c-1.23,0-2.27.88-2.5,2.09Z"/>
    <path class="st2" d="M393.5,398.91c-6.42,5.4-14.22,9.2-22.8,10.81-1.21.23-2.09,1.27-2.09,2.5v24.52c0,2.16,1.91,3.82,4.05,3.52,16.19-2.25,30.84-9.34,42.44-19.76l-21.59-21.59Z"/>
  </g>
</svg>