<?xml version="1.0" encoding="UTF-8"?>
<svg id="_图层_1" xmlns="http://www.w3.org/2000/svg" xmlns:xlink="http://www.w3.org/1999/xlink" version="1.1" viewBox="0 0 512 512">
  <!-- Generator: Adobe Illustrator 29.0.1, SVG Export Plug-In . SVG Version: 2.1.0 Build 192)  -->
  <defs>
    <style>
      .st0 {
        fill: #2c5aa0;
      }

      .st1 {
        isolation: isolate;
      }

      .st2 {
        fill: #fff;
      }
    </style>
  </defs>
  <circle class="st0" cx="256" cy="256" r="256"/>
  <image class="st1" width="603" height="603" transform="translate(-7936 -7936)" xlink:href="clogo-1.png"/>
  <path class="st2" d="M256,195.5c-33.4,0-60.5,27.1-60.5,60.5s27.1,60.5,60.5,60.5,60.5-27.1,60.5-60.5-27.1-60.5-60.5-60.5ZM256,293.5c-20.7,0-37.5-16.8-37.5-37.5s16.8-37.5,37.5-37.5,37.5,16.8,37.5,37.5-16.8,37.5-37.5,37.5Z"/>
  <g>
    <path class="st2" d="M182.9,321.3c-14.4-16.1-23.5-36.9-24.8-59.8h-60.1c1.4,39.5,17.2,75.3,42.4,102.2l42.5-42.5Z"/>
    <path class="st2" d="M158.2,250.5c1.3-22.9,10.4-43.7,24.8-59.8l-42.5-42.5c-25.2,27-41,62.8-42.4,102.3h60.1Z"/>
    <path class="st2" d="M190.7,182.9c16.1-14.4,36.9-23.5,59.8-24.8v-60.1c-39.5,1.4-75.3,17.2-102.3,42.4l42.5,42.5Z"/>
    <path class="st2" d="M261.5,98.1v60.1c22.9,1.3,43.7,10.4,59.8,24.8l42.5-42.5c-27-25.2-62.8-41-102.3-42.4Z"/>
    <path class="st2" d="M329.1,190.7c14.4,16.1,23.5,36.9,24.8,59.8h60.1c-1.3-39.5-17.2-75.3-42.4-102.3l-42.5,42.5Z"/>
    <path class="st2" d="M250.5,353.8c-22.9-1.3-43.7-10.4-59.8-24.8l-42.5,42.5c27,25.2,62.8,41,102.3,42.4v-60.1Z"/>
    <path class="st2" d="M353.8,261.5c-1.3,22.9-10.4,43.7-24.8,59.8l42.5,42.5c25.2-27,41-62.8,42.4-102.2h-60.1Z"/>
    <path class="st2" d="M321.3,329.1c-16.1,14.4-36.9,23.5-59.8,24.8v60.1c39.5-1.4,75.3-17.2,102.3-42.4l-42.5-42.5Z"/>
  </g>
</svg>