<?xml version="1.0" standalone="no"?><!DOCTYPE svg PUBLIC "-//W3C//DTD SVG 1.1//EN" "http://www.w3.org/Graphics/SVG/1.1/DTD/svg11.dtd"><svg t="1758342693308" class="icon" viewBox="0 0 1024 1024" version="1.1" xmlns="http://www.w3.org/2000/svg" p-id="11558" xmlns:xlink="http://www.w3.org/1999/xlink" width="200" height="200"><path d="M512 1024C229.229714 1024 0 794.770286 0 512S229.229714 0 512 0s512 229.229714 512 512-229.229714 512-512 512z m76.336762-512l127.122286-127.122286c21.333333-21.308952 21.211429-55.393524 0.121904-76.458666a53.955048 53.955048 0 0 0-76.458666 0.121904L512 435.687619l-127.122286-127.122286a53.930667 53.930667 0 0 0-76.458666-0.121904c-21.23581 21.211429-21.040762 55.320381 0.121904 76.458666L435.687619 512l-127.122286 127.122286a53.930667 53.930667 0 0 0-0.121904 76.458666c21.211429 21.23581 55.320381 21.040762 76.458666-0.121904L512 588.312381l127.122286 127.122286c21.308952 21.333333 55.393524 21.211429 76.458666 0.121904 21.23581-21.211429 21.040762-55.320381-0.121904-76.458666L588.312381 512z" fill="#9A9A9A" p-id="11559"></path></svg>