<?xml version="1.0" standalone="no"?><!DOCTYPE svg PUBLIC "-//W3C//DTD SVG 1.1//EN" "http://www.w3.org/Graphics/SVG/1.1/DTD/svg11.dtd"><svg t="1752142074936" class="icon" viewBox="0 0 1024 1024" version="1.1" xmlns="http://www.w3.org/2000/svg" p-id="10100" xmlns:xlink="http://www.w3.org/1999/xlink" width="200" height="200"><path d="M512 1024c-283.136 0-512-228.928-512-512 0-283.136 228.864-512 512-512 283.072 0 512 228.864 512 512 0 283.072-228.928 512-512 512zM512 102.4A409.472 409.472 0 0 0 102.4 512c0 226.304 183.296 409.6 409.6 409.6 226.304 0 409.6-183.296 409.6-409.6 0-226.304-183.296-409.6-409.6-409.6z m283.968 320.96l-303.744 303.744a52.48 52.48 0 0 1-73.152 0l-182.464-182.4a52.48 52.48 0 0 1 0-73.152 52.48 52.48 0 0 1 73.152 0l146.304 146.304 267.584-267.648a52.48 52.48 0 0 1 73.152 0c19.84 19.776 19.84 52.48-0.832 73.152z" fill="#2FC25B" p-id="10101"></path></svg>