<?xml version="1.0" standalone="no"?><!DOCTYPE svg PUBLIC "-//W3C//DTD SVG 1.1//EN" "http://www.w3.org/Graphics/SVG/1.1/DTD/svg11.dtd"><svg t="1776064364366" class="icon" viewBox="0 0 1024 1024" version="1.1" xmlns="http://www.w3.org/2000/svg" p-id="14713" xmlns:xlink="http://www.w3.org/1999/xlink" width="200" height="200"><path d="M213.333333 128h597.333334a85.333333 85.333333 0 0 1 85.333333 85.333333v597.333334a85.333333 85.333333 0 0 1-85.333333 85.333333H213.333333a85.333333 85.333333 0 0 1-85.333333-85.333333V213.333333a85.333333 85.333333 0 0 1 85.333333-85.333333z m0 85.333333v597.333334h597.333334V213.333333H213.333333z m341.333334 256h85.333333a42.666667 42.666667 0 0 1 0 85.333334h-85.333333v85.333333a42.666667 42.666667 0 0 1-85.333334 0v-85.333333H384a42.666667 42.666667 0 0 1 0-85.333334h85.333333V384a42.666667 42.666667 0 0 1 85.333334 0v85.333333z" fill="#000000" p-id="14714"></path></svg>